<?xml version="1.0" encoding="UTF-8"?>
<svg id="Layer_1" xmlns="http://www.w3.org/2000/svg" viewBox="0 0 48 48">
  <g id="foehnindex">
    <path id="mountain" d="M36.32,30.21c-.58-.73-4.35-5.44-4.65-6.46,0-.29.15-1.96-.22-2.47-.29-.51-1.02-1.81-1.38-2.98-.58-1.74-5.15-3.34-5.37-3.41-.15,0-.36,0-.51.15l-2.25,2.25c-.22.22-.29.44-.29.65s0,.73-.07.87l-1.6,1.31c-.15.15-.29.36-.36.58-.15.58-.29,1.67-.36,3.05,0,.07,0,.15-.15.22-3.41,1.45-5.08,5.88-5.66,7.69-.22.73.22,1.23.94,1.23h20.98c1.02,0,1.74-1.6.94-2.69ZM14.32,31.88c.51-1.74,2.1-5.95,5.23-7.26.36-.15.58-.51.58-.87,0-1.31.29-2.83.36-2.98.22-.29,1.67-1.38,1.67-1.38.22-.15.36-.36.36-.73,0-.22,0-.51.07-.8l2.1-2.1c.36.44,1.31,3.27,1.45,3.56,0,.29-1.16,3.34-1.16,4.43,0,.8.51,1.67.73,1.96,0,.22-.36,1.89-.36,1.89l-1.81,4.35s-.15.15-.22.15h-8.78q-.29,0-.22-.22ZM35.37,32.1h-11.18l1.81-4.14.36-1.89c0-.22,0-.44-.15-.73-.29-.51-.65-1.16-.65-1.6s1.02-3.77,1.16-4.28-.73-2.18-1.16-3.41c.8.36,3.12,1.23,3.77,2.47.36,1.45,1.23,2.54,1.52,3.56v1.67c0,.87,4.65,6.6,4.72,6.9.51.58.22,1.45-.22,1.45Z"/>
    <path id="arrow" d="M16.72,18.46l-.51-.51-3.77,3.77v-2.9h-.73v3.63c0,.22.15.36.36.44h3.77v-.73h-2.9l3.77-3.7h0Z"/>
  </g>
</svg>