<?xml version="1.0" encoding="UTF-8"?>
<svg id="Layer_1" xmlns="http://www.w3.org/2000/svg" viewBox="0 0 48 48">
  <g id="globalrays">
    <path id="ray11" d="M24.04,32.61v3.48c0,.8-1.01.72-1.01,0v-3.48c0-.72,1.01-.72,1.01,0Z"/>
    <path id="ray10" d="M21.36,32.24l-1.16,3.26c-.29.72-1.23.36-1.01-.36l1.16-3.26c.22-.72,1.23-.29,1.01.36Z"/>
    <path id="ray9" d="M18.89,30.79l-2.17,2.97c-.51.65-1.3,0-.87-.58l2.17-2.97c.43-.65,1.3,0,.87.58Z"/>
    <path id="ray8" d="M16.86,28.76c-.58.43-2.39,1.81-3.04,2.32s-1.3-.29-.65-.8l3.04-2.32c.65-.51,1.23.36.65.8Z"/>
    <path id="ray7" d="M15.56,26.37c-.72.29-2.83,1.01-3.62,1.3s-1.16-.72-.36-1.01l3.62-1.3c.8-.29,1.09.72.36,1.01Z"/>
    <path id="ray6" d="M11.14,23.91c-.87,0-.87-1.09,0-1.09h3.84c.8,0,.72,1.09,0,1.09h-3.84Z"/>
    <path id="ray5" d="M15.2,21.22c-.72-.29-2.75-1.01-3.55-1.3s-.43-1.3.36-1.01l3.55,1.3c.8.29.36,1.23-.36,1.01Z"/>
    <path id="ray4" d="M16.28,18.76c-.58-.43-2.32-1.81-3.04-2.32s0-1.3.65-.87l3.04,2.32c.65.51,0,1.3-.65.87Z"/>
    <path id="ray3" d="M18.1,16.66c-.43-.58-1.67-2.17-2.17-2.83s.36-1.23.8-.65l2.17,2.83c.43.58-.36,1.23-.8.65Z"/>
    <path id="ray2" d="M20.42,15.06c-.22-.65-.87-2.46-1.16-3.12s.72-1.01,1.01-.36l1.16,3.12c.22.65-.72,1.01-1.01.36Z"/>
    <path id="ray1" d="M24.04,11.15v3.19c0,.72-1.01.72-1.01,0v-3.19c0-.65,1.01-.65,1.01,0Z"/>
    <path id="side" d="M22.95,31.08c-3.77-.65-7.03-4.71-6.45-8.63.36-3.33,3.19-6.16,6.45-6.74-.43.51-.87,1.09-1.38,1.81-4.86,2.25-5.51,9.13,0,11.82.29.36,1.38,1.74,1.38,1.74Z"/>
    <path id="globe" d="M25.06,14.92c-5.22,3.84-4.71,13.99.14,16.96,11.74-.36,12.11-16.46-.14-16.96ZM31.15,18.47c.65.72,1.88,2.46,1.81,4.28h-4.06c0-1.01-.22-2.1-.43-2.75,1.09-.36,2.03-1.09,2.68-1.52ZM30.28,17.6c-.72.65-1.59,1.01-2.17,1.3-.51-1.16-.94-1.74-1.81-2.75,1.81,0,3.77,1.3,3.99,1.45ZM25.06,16.51c.87.8,1.38,1.59,1.88,2.61-.94.29-2.46.29-3.55,0-.07-.22,1.01-1.96,1.67-2.61ZM22.52,22.75c.14-1.01.29-1.67.51-2.54,1.38.36,2.97.36,4.35,0,.14.58.43,1.88.43,2.54h-5.29ZM22.88,26.23c-.14-.43-.29-1.45-.36-2.39h5.22c0,.87-.22,1.67-.36,2.25-1.16-.29-3.48-.29-4.49.14ZM25.13,30.07c-.65-.51-1.38-1.67-1.88-2.83,1.16-.43,3.12-.29,3.77,0-.14.65-.94,1.96-1.88,2.9h0v-.07ZM30.49,28.84c-1.09.8-2.17,1.67-4.13,1.74.65-.65,1.52-2.39,1.74-3.04.8.22,2.03.94,2.32,1.3h.07ZM31.22,28.11c-.94-.87-2.17-1.38-2.75-1.67.22-.65.36-1.88.43-2.54h4.13c0,1.59-.43,2.9-1.74,4.2h-.07Z"/>
  </g>
</svg>