<?xml version="1.0" encoding="UTF-8"?>
<svg id="Layer_1" xmlns="http://www.w3.org/2000/svg" viewBox="0 0 48 48">
  <path id="ring" d="M24.1,37.1c-7.15,0-13-5.85-13-13s5.78-13,13-13,13,5.85,13,13-5.85,13-13,13ZM24.1,11.93c-6.74,0-12.17,5.43-12.17,12.17s5.43,12.17,12.17,12.17,12.17-5.43,12.17-12.17-5.5-12.17-12.17-12.17Z"/>
  <path id="stroke" d="M23.69,29.12v5.78c0,.41.69.41.69,0v-5.78c0-.55-.69-.55-.69,0Z"/>
  <path d="M30.57,21.62c0-1.51-1.99-1.51-2.96-1.44.83-.69,2.2-1.99,1.1-3.1s-2.82.47-3.21,1.09c.12-.67.32-3.09-1.33-3.09s-1.58,2.2-1.51,2.96c-1.03-1.31-2.13-2.06-3.1-1.1s.14,2.41,1.1,3.16c-2.06-.34-3.03.34-3.03,1.38s1.17,1.72,2.96,1.51c-.34.28-2.34,1.86-1.1,3.1s2.96-.69,3.23-.96c0,.69-.34,2.96,1.31,2.96s1.72-2.13,1.58-2.96c1.03,1.24,2.13,1.99,3.1,1.1s.14-2.13-1.1-3.16c1.1.07,2.96.07,2.96-1.44ZM28.16,17.5c.76.69-1.34,2.32-2.3,2.87-.13-.21-.39-.48-.62-.62.48-1.1,2.17-2.93,2.92-2.24h0ZM24.1,15.78c1.03,0,.77,2.43.43,3.67-.28-.07-.67-.04-.91,0-.28-1.24-.54-3.67.49-3.67ZM20.04,17.43c.76-.76,2.51,1.48,2.92,2.3-.21.14-.49.39-.62.63-.14-.05-3.06-2.18-2.3-2.94h0ZM18.39,21.49c0-1.43,2.78-.61,3.67-.42-.07.28-.05.63.02.91-.55.14-3.7.94-3.7-.49h0ZM19.97,25.54c-.69-.69,1.29-2.32,2.39-2.94.14.21.41.45.61.6-.69,1.17-2.3,3.03-2.99,2.34h0ZM24.07,27.26c-1.05-.06-.65-2.54-.37-3.77.28.09.68.01.87,0,.28,1.22.56,3.71-.5,3.77ZM24.09,22.92c-.8,0-1.45-.65-1.45-1.45s.65-1.45,1.45-1.45,1.45.65,1.45,1.45-.65,1.45-1.45,1.45ZM28.16,25.61c-.89.96-2.51-1.86-2.92-2.41.21-.17.44-.36.6-.6.21.14,3.22,2.04,2.32,3.01ZM26.12,21.89c.07-.28.06-.61,0-.89.89-.21,3.76-.68,3.76.49s-2.79.61-3.76.4Z"/>
  <ellipse cx="22.72" cy="34.57" rx=".3" ry=".31"/>
  <ellipse cx="22.34" cy="32.55" rx=".37" ry=".38"/>
  <ellipse cx="21.54" cy="34.18" rx=".37" ry=".38"/>
  <ellipse cx="19.15" cy="31.38" rx=".47" ry=".47"/>
  <ellipse cx="20.97" cy="31.9" rx=".3" ry=".31"/>
  <ellipse cx="19.86" cy="28.08" rx=".3" ry=".31"/>
  <ellipse cx="27.06" cy="27.84" rx=".3" ry=".31"/>
  <ellipse cx="25.93" cy="28.74" rx=".3" ry=".31"/>
  <ellipse cx="31.03" cy="28.04" rx=".3" ry=".31"/>
  <ellipse cx="27.53" cy="29.38" rx=".3" ry=".31"/>
  <ellipse cx="29.82" cy="30.68" rx=".3" ry=".31"/>
  <ellipse cx="33.36" cy="23.34" rx=".3" ry=".31"/>
  <ellipse cx="32.77" cy="22.15" rx=".3" ry=".31"/>
  <ellipse cx="34.4" cy="20.38" rx=".3" ry=".31"/>
  <ellipse cx="30.16" cy="24.02" rx=".3" ry=".31"/>
  <ellipse cx="33.03" cy="25.34" rx=".3" ry=".31"/>
  <ellipse cx="30.04" cy="18.89" rx=".3" ry=".31"/>
  <ellipse cx="27.01" cy="13.81" rx=".3" ry=".31"/>
  <ellipse cx="18.94" cy="14.76" rx=".3" ry=".31"/>
  <ellipse cx="15.46" cy="19.94" rx=".3" ry=".31"/>
  <ellipse cx="13.47" cy="23.84" rx=".3" ry=".31"/>
  <ellipse cx="18.34" cy="19" rx=".3" ry=".31"/>
  <ellipse cx="27.14" cy="15.19" rx=".3" ry=".31"/>
  <ellipse cx="21.92" cy="15.43" rx=".3" ry=".31"/>
  <ellipse cx="32.99" cy="17.61" rx=".3" ry=".31"/>
  <ellipse cx="17.94" cy="26.29" rx=".3" ry=".31"/>
  <ellipse cx="18.71" cy="27.33" rx=".3" ry=".31"/>
  <ellipse cx="13.73" cy="27.33" rx=".3" ry=".31"/>
  <ellipse cx="17.81" cy="17.64" rx=".3" ry=".31"/>
  <ellipse cx="31.69" cy="21" rx=".3" ry=".31"/>
  <ellipse cx="25.81" cy="32.43" rx=".37" ry=".38"/>
  <ellipse cx="31.64" cy="31.35" rx=".37" ry=".38"/>
  <ellipse cx="30.21" cy="32.43" rx=".37" ry=".38"/>
  <ellipse cx="28.82" cy="33.37" rx=".37" ry=".38"/>
  <ellipse cx="16.8" cy="16.41" rx=".37" ry=".38"/>
  <ellipse cx="18.48" cy="16.03" rx=".37" ry=".38"/>
  <ellipse cx="30.46" cy="15.6" rx=".37" ry=".38"/>
  <ellipse cx="34.49" cy="23.8" rx=".37" ry=".38"/>
  <ellipse cx="16.67" cy="22.87" rx=".37" ry=".38"/>
  <ellipse cx="14.44" cy="28.79" rx=".37" ry=".38"/>
  <ellipse cx="19.35" cy="29.51" rx=".37" ry=".38"/>
  <ellipse cx="17.57" cy="30.56" rx=".37" ry=".38"/>
  <ellipse cx="16.27" cy="31.56" rx=".37" ry=".38"/>
  <ellipse cx="15.64" cy="30.1" rx=".37" ry=".38"/>
  <ellipse cx="16.42" cy="25.79" rx=".37" ry=".38"/>
  <ellipse cx="15.49" cy="27.42" rx=".37" ry=".38"/>
  <ellipse cx="17.57" cy="24.15" rx=".37" ry=".38"/>
  <ellipse cx="13.56" cy="25.18" rx=".37" ry=".38"/>
  <ellipse cx="13.89" cy="22.48" rx=".37" ry=".38"/>
  <ellipse cx="14" cy="20.76" rx=".37" ry=".38"/>
  <ellipse cx="14.66" cy="19.13" rx=".37" ry=".38"/>
  <ellipse cx="15.54" cy="17.62" rx=".37" ry=".38"/>
  <ellipse cx="14.56" cy="26.12" rx=".37" ry=".38"/>
  <ellipse cx="27.23" cy="33.72" rx=".37" ry=".38"/>
  <ellipse cx="25.79" cy="34.44" rx=".37" ry=".38"/>
  <ellipse cx="26.02" cy="30.64" rx=".37" ry=".38"/>
  <ellipse cx="19.99" cy="33.29" rx=".37" ry=".38"/>
  <ellipse cx="18.48" cy="33.1" rx=".37" ry=".38"/>
  <ellipse cx="21.4" cy="27.97" rx=".37" ry=".38"/>
  <ellipse cx="17.48" cy="32.47" rx=".37" ry=".38"/>
  <ellipse cx="30.82" cy="29.74" rx=".37" ry=".38"/>
  <ellipse cx="32.26" cy="28.98" rx=".37" ry=".38"/>
  <ellipse cx="24.12" cy="13.61" rx=".37" ry=".38"/>
  <ellipse cx="25.93" cy="14.54" rx=".37" ry=".38"/>
  <ellipse cx="30.35" cy="17.28" rx=".37" ry=".38"/>
  <ellipse cx="30.35" cy="26.03" rx=".37" ry=".38"/>
  <ellipse cx="34.49" cy="21.97" rx=".37" ry=".38"/>
  <ellipse cx="33.65" cy="19" rx=".37" ry=".38"/>
  <ellipse cx="32.87" cy="20.38" rx=".37" ry=".38"/>
  <ellipse cx="31.89" cy="16.58" rx=".37" ry=".38"/>
  <ellipse cx="22.35" cy="13.99" rx=".37" ry=".38"/>
  <ellipse cx="33.85" cy="28.5" rx=".37" ry=".38"/>
  <ellipse cx="33.98" cy="26.72" rx=".37" ry=".38"/>
  <ellipse cx="34.76" cy="25.37" rx=".3" ry=".31"/>
  <ellipse cx="33" cy="30.33" rx=".3" ry=".31"/>
  <ellipse cx="31.95" cy="26.98" rx=".47" ry=".47"/>
  <ellipse cx="28.76" cy="14.92" rx=".47" ry=".47"/>
  <path d="M15.28,23.25c-.4,0-.72.33-.72.74s.32.74.72.74.72-.33.72-.74-.32-.74-.72-.74ZM15.28,24.17c-.1,0-.19-.08-.19-.19s.08-.19.19-.19.19.08.19.19-.08.19-.19.19Z"/>
  <path d="M21.62,29.24c-.4,0-.72.33-.72.74s.32.74.72.74.72-.33.72-.74-.32-.74-.72-.74ZM21.62,30.17c-.1,0-.19-.08-.19-.19s.08-.19.19-.19.19.08.19.19-.08.19-.19.19Z"/>
  <path d="M17.35,27.55c-.4,0-.72.33-.72.74s.32.74.72.74.72-.33.72-.74-.32-.74-.72-.74ZM17.35,28.47c-.1,0-.19-.08-.19-.19s.08-.19.19-.19.19.08.19.19-.08.19-.19.19Z"/>
  <path d="M28.04,30.12c-.4,0-.72.33-.72.74s.32.74.72.74.72-.33.72-.74-.32-.74-.72-.74ZM28.04,31.04c-.1,0-.19-.08-.19-.19s.08-.19.19-.19.19.08.19.19-.08.19-.19.19Z"/>
  <path d="M29.46,27.5c-.36,0-.65.3-.65.67s.29.67.65.67.65-.3.65-.67-.29-.67-.65-.67ZM29.46,28.34c-.1,0-.17-.08-.17-.17s.08-.17.17-.17.17.08.17.17-.08.17-.17.17Z"/>
  <path d="M31.81,23.28c-.36,0-.66.3-.66.67s.3.67.66.67.66-.3.66-.67-.3-.67-.66-.67ZM31.81,24.13c-.1,0-.17-.08-.17-.17s.08-.17.17-.17.17.08.17.17-.08.17-.17.17Z"/>
  <path d="M31.73,17.83c-.34,0-.62.28-.62.63s.28.63.62.63.62-.28.62-.63-.28-.63-.62-.63ZM31.73,18.62c-.09,0-.16-.08-.16-.17s.07-.17.16-.17.16.08.16.17-.07.17-.16.17Z"/>
  <path d="M20.64,13.93c-.34,0-.62.28-.62.63s.28.63.62.63.62-.28.62-.63-.28-.63-.62-.63ZM20.64,14.72c-.09,0-.16-.08-.16-.17s.07-.17.16-.17.16.08.16.17-.07.17-.16.17Z"/>
  <path d="M16.67,18.26c-.34,0-.61.28-.61.63s.28.63.61.63.61-.28.61-.63-.28-.63-.61-.63ZM16.67,19.04c-.09,0-.16-.08-.16-.17s.07-.17.16-.17.16.08.16.17-.07.17-.16.17Z"/>
  <path d="M15.8,20.78c-.28,0-.5.23-.5.5s.22.5.5.5.5-.23.5-.5-.22-.5-.5-.5ZM15.8,21.42c-.07,0-.13-.06-.13-.13s.06-.13.13-.13.13.06.13.13-.06.13-.13.13Z"/>
</svg>