<?xml version="1.0" encoding="UTF-8"?>
<svg id="Layer_1" xmlns="http://www.w3.org/2000/svg" viewBox="0 0 48 48">
  <path d="M22.38,23.13c2.33-2.26,3.87-7.35,3.87-7.35,0,0-5.13,1.39-7.46,3.66-1.02.99-1.04,2.63-.05,3.64.99,1.02,2.63,1.04,3.64.05h0Z"/>
  <path d="M15.7,33c.99,1.02,2.62,1.04,3.64.05,2.33-2.26,3.87-7.35,3.87-7.35,0,0-5.13,1.4-7.46,3.66-1.02.99-1.04,2.63-.05,3.64h0Z"/>
  <path d="M25.94,24.5c-1.02.99-1.04,2.62-.05,3.64.99,1.02,2.62,1.04,3.64.05,2.33-2.26,3.87-7.35,3.87-7.35,0,0-5.13,1.39-7.46,3.66h0Z"/>
</svg>