<?xml version="1.0" encoding="UTF-8"?>
<svg id="Layer_1" xmlns="http://www.w3.org/2000/svg" viewBox="0 0 48 48">
  <path d="M22.54,26.86h1.35c.16,0,.3-.13.3-.3s-.13-.3-.3-.3h-1.35l.72-.72c.12-.12.12-.31,0-.42-.12-.12-.31-.12-.42,0l-1.15,1.15h-1.42l.71-1.23,1.57-.42c.16-.04.26-.21.21-.37-.04-.16-.21-.25-.37-.21l-.99.27.68-1.18c.08-.14.04-.33-.11-.41-.14-.08-.33-.04-.41.11l-.67,1.18-.26-.99c-.04-.16-.21-.26-.37-.21-.16.04-.26.21-.21.37l.42,1.57-.71,1.23-.71-1.23.42-1.57c.04-.16-.05-.33-.21-.37-.16-.04-.32.05-.37.21l-.26.99-.68-1.18c-.08-.14-.27-.19-.41-.11-.14.08-.19.27-.11.41l.68,1.18-.99-.27c-.16-.04-.33.05-.37.21-.04.16.05.33.21.37l1.57.42.71,1.23h-1.42l-1.15-1.15c-.12-.12-.31-.12-.42,0-.12.12-.12.31,0,.42l.72.72h-1.35c-.16,0-.3.13-.3.3s.13.3.3.3h1.35l-.72.72c-.12.12-.12.31,0,.42.06.06.14.09.21.09s.15-.03.21-.09l1.14-1.15h1.42l-.71,1.23-1.57.42c-.16.04-.26.21-.21.37.04.13.16.22.29.22.02,0,.05,0,.08-.01l.99-.27-.68,1.18c-.08.14-.04.33.11.41.05.03.1.04.15.04.1,0,.2-.05.26-.15l.68-1.18.26.99c.04.13.16.22.29.22.02,0,.05,0,.08-.01.16-.04.26-.21.21-.37l-.42-1.57.71-1.23.71,1.23-.42,1.57c-.04.16.05.33.21.37.02,0,.05.01.08.01.13,0,.25-.09.29-.22l.26-.99.68,1.18c.06.09.16.15.26.15.05,0,.1-.01.15-.04.14-.08.19-.27.11-.41l-.68-1.18.99.27s.05.01.08.01c.13,0,.25-.09.29-.22.04-.16-.05-.33-.21-.37l-1.57-.42-.71-1.23h1.42l1.15,1.15c.06.06.14.09.21.09s.15-.03.21-.09c.12-.12.12-.31,0-.42l-.73-.72Z"/>
  <path d="M22.75,20.84h1.35l-.72.72c-.12.12-.12.31,0,.42.06.06.14.09.21.09s.15-.03.21-.09l1.15-1.15h1.42l-.71,1.23-1.57.42c-.16.04-.26.21-.21.37.03.13.16.22.29.22.02,0,.05,0,.08-.01l.99-.27-.68,1.18c-.08.14-.04.33.11.41.05.03.1.04.15.04.1,0,.2-.05.26-.15l.68-1.18.26.99c.04.13.16.22.29.22.02,0,.05,0,.08-.01.16-.04.26-.21.21-.37l-.42-1.57.71-1.23.71,1.23-.42,1.57c-.04.16.05.33.21.37.02,0,.05.01.08.01.13,0,.25-.09.29-.22l.26-.99.68,1.18c.06.1.16.15.26.15.05,0,.1-.01.15-.04.14-.08.19-.27.11-.41l-.68-1.18.99.27s.05.01.08.01c.13,0,.25-.09.29-.22.04-.16-.05-.33-.21-.37l-1.57-.42-.71-1.23h1.42l1.15,1.15c.06.06.14.09.21.09s.15-.03.21-.09c.12-.12.12-.31,0-.42l-.72-.72h1.35c.16,0,.3-.13.3-.3s-.13-.3-.3-.3h-1.35l.72-.72c.12-.12.12-.31,0-.42s-.31-.12-.42,0l-1.15,1.15h-1.42l.71-1.23,1.57-.42c.16-.04.26-.21.21-.37-.04-.16-.2-.25-.37-.21l-.99.27.68-1.18c.08-.14.04-.33-.11-.41-.14-.08-.33-.04-.41.11l-.68,1.18-.26-.99c-.04-.16-.21-.26-.37-.21-.16.04-.26.21-.21.37l.42,1.57-.71,1.23-.71-1.23.42-1.57c.04-.16-.05-.33-.21-.37-.16-.05-.32.05-.37.21l-.26.99-.68-1.18c-.08-.14-.27-.19-.41-.11-.14.08-.19.27-.11.41l.68,1.18-.99-.27c-.16-.04-.33.05-.37.21-.04.16.05.33.21.37l1.57.42.71,1.23h-1.42l-1.16-1.15c-.12-.12-.31-.12-.42,0-.12.12-.12.31,0,.42l.72.72h-1.35c-.16,0-.3.13-.3.3,0,.16.14.3.3.3Z"/>
  <path d="M32.37,29.23h-1.35l.72-.72c.12-.12.12-.31,0-.42-.12-.12-.31-.12-.42,0l-1.15,1.15h-1.42l.71-1.23,1.57-.42c.16-.04.26-.21.21-.37-.04-.16-.2-.26-.37-.21l-.99.27.68-1.18c.08-.14.03-.33-.11-.41-.14-.08-.33-.03-.41.11l-.68,1.18-.26-.99c-.04-.16-.21-.25-.37-.21-.16.04-.26.21-.21.37l.42,1.57-.71,1.23-.71-1.23.42-1.57c.04-.16-.05-.33-.21-.37-.16-.04-.32.05-.37.21l-.26.99-.68-1.18c-.08-.14-.27-.19-.41-.11-.14.08-.19.27-.11.41l.68,1.18-.99-.27c-.16-.04-.33.05-.37.21-.04.16.05.33.21.37l1.57.42.71,1.23h-1.42l-1.15-1.15c-.12-.12-.31-.12-.42,0-.12.12-.12.31,0,.42l.72.72h-1.35c-.16,0-.3.13-.3.3s.13.3.3.3h1.35l-.72.72c-.12.12-.12.31,0,.42.06.06.14.09.21.09s.15-.03.21-.09l1.15-1.15h1.42l-.71,1.23-1.57.42c-.16.04-.26.21-.21.37.04.13.16.22.29.22.02,0,.05,0,.08-.01l.99-.27-.68,1.18c-.08.14-.04.33.11.41.05.03.1.04.15.04.1,0,.2-.05.26-.15l.68-1.18.26.99c.03.13.16.22.29.22.02,0,.05,0,.08-.01.16-.04.26-.21.21-.37l-.42-1.57.71-1.23.71,1.23-.42,1.57c-.04.16.05.33.21.37.02,0,.05.01.08.01.13,0,.25-.09.29-.22l.26-.99.68,1.18c.06.09.16.15.26.15.05,0,.1-.01.15-.04.14-.08.19-.27.11-.41l-.68-1.18.99.27s.05.01.08.01c.13,0,.25-.09.29-.22.04-.16-.05-.33-.21-.37l-1.57-.42-.71-1.23h1.42l1.15,1.15c.06.06.14.09.21.09s.15-.03.21-.09c.12-.12.12-.31,0-.42l-.72-.72h1.35c.16,0,.3-.13.3-.3-.01-.17-.14-.3-.31-.3Z"/>
</svg>