<?xml version="1.0" encoding="UTF-8"?>
<svg id="Layer_1" xmlns="http://www.w3.org/2000/svg" viewBox="0 0 48 48">
  <defs>
    <style>
      .cls-1 {
        fill-rule: evenodd;
      }
    </style>
  </defs>
  <path class="cls-1" d="M24.52,18.69c0,.35-.22.63-.57.63-.35,0-.57-.28-.57-.63v-2.06c0-.35.22-.63.57-.63s.57.28.57.63v2.06ZM17.63,19.53l1.46,1.46c.25.25.65.25.89,0,.25-.25.25-.65,0-.89l-1.46-1.46c-.25-.25-.65-.25-.89,0-.25.25-.25.65,0,.89ZM28.91,20.98c-.25.25-.65.25-.89,0-.25-.25-.25-.65,0-.89l1.46-1.46c.25-.25.65-.25.89,0,.25.25.25.65,0,.89l-1.46,1.46ZM24,29.53c-2.5,0-4.53-2.03-4.53-4.53s2.03-4.53,4.53-4.53,4.53,2.03,4.53,4.53-2.03,4.53-4.53,4.53ZM19.09,29.02c.25-.25.65-.25.89,0,.25.25.25.64,0,.89l-1.46,1.46c-.25.25-.65.25-.89,0-.25-.25-.25-.64,0-.89l1.46-1.46ZM30.36,30.47l-1.46-1.46c-.25-.25-.64-.25-.89,0-.25.25-.25.65,0,.89l1.46,1.46c.25.25.65.25.89,0,.25-.25.25-.64,0-.89ZM15.63,25.52h2.06c.35,0,.63-.22.63-.57s-.28-.57-.63-.57h-2.06c-.35,0-.63.22-.63.57s.28.57.63.57ZM23.39,31.31c0-.35.22-.63.57-.63.35,0,.57.28.57.63v2.06c0,.35-.22.63-.57.63s-.57-.28-.57-.63v-2.06ZM32.37,24.39h-2.06c-.35,0-.63.22-.63.57s.28.57.63.57h2.06c.35,0,.63-.22.63-.57s-.28-.57-.63-.57Z"/>
</svg>