<svg width="33" height="21" viewBox="0 0 33 21" fill="none" xmlns="http://www.w3.org/2000/svg">
  <path fill-rule="evenodd" clip-rule="evenodd" d="M19.1126 0.376953L19.4816 0.505782L19.5318 0.865109L19.6961 0.714773L19.7194 0.450511L19.8946 0.595411L19.9732 0.878008L20.1176 0.796248L20.3082 0.919663L20.1232 1.10369L20.2703 1.27587L20.2389 1.52053L20.2812 1.52329L20.6812 1.6891L20.7975 1.50609L20.5216 1.37388L20.5229 1.26093L20.7646 1.06458L20.8556 1.30533L21.2181 1.39737L21.2431 1.48676L21.0927 1.459L21.0853 1.62336L21.2548 1.8756L21.1405 1.85312L21.4457 1.95148L22.2667 1.54716L23.1836 1.73243L24.7716 2.64947L24.8117 2.91311L25.2162 3.30119L25.6125 3.55711L26.0194 3.34881L26.304 3.70561L26.3649 3.63656L26.721 3.81007L26.6957 3.87486L26.6021 4.04212L26.8019 4.58399L26.4233 4.79565L26.2053 5.28453L25.9069 5.6008L26.1451 5.87594L26.0477 6.05077L26.2746 6.24568L26.1566 6.59631L26.547 6.77344L26.6503 7.00593L26.5568 7.18414L26.6519 7.45649L26.5004 7.50133L26.5036 7.74793L26.9904 7.67154L27.2135 7.82153L27.7186 7.87435L28.0461 8.10792L28.013 8.19911L28.2143 8.1049L28.3343 8.175L28.4475 8.41411L28.3358 8.59422L28.367 8.97582L28.7697 9.17026L29.0951 9.1699L29.4822 9.39163L29.6362 9.67262L29.898 9.72703L30.023 9.87152L30.4031 9.80216L30.6226 9.60157L31.0367 9.5899L30.8913 9.57612L30.8381 9.32947L30.9321 8.97978L31.2353 9.04146L31.4514 8.96027L31.3799 8.75934L31.6391 8.32529L31.9046 8.21235L32.2035 8.45874L32.1979 8.62181L32.6443 8.81322L32.4843 10.0349L32.2263 10.2853L32.2706 10.3013L32.479 10.741L32.1645 10.9175L32.2644 11.1575L32.056 11.374L32.1932 11.8618L32.5126 11.818L32.8242 12.0632L32.7315 12.7781L32.6069 12.914L32.3327 12.7347L31.6034 12.8015L31.4211 12.5691L31.1342 12.5355L31.1162 12.3141L31.4215 12.0633L31.2272 12.2147L31.0574 11.9312L30.904 12.1163L30.6739 12.0582L30.2525 12.2561L30.0852 12.5268L29.7444 12.9189L29.7474 13.5714L29.7393 13.9346L29.7288 13.9467L29.9955 14.1079L30.412 14.0221L30.5695 14.3939L30.3295 14.5188L30.1773 14.976L30.6017 15.4913L30.6559 15.82L30.4342 16.0052L29.9725 16.1402L29.787 16.023L29.8509 15.6853L29.3992 15.466L29.4277 15.2107L29.3002 15.0947L29.4227 14.8505L29.1605 14.5866L28.941 14.7008L28.7889 14.5747L27.9259 15.0362L27.6684 14.8937L27.6063 14.8797L27.4798 14.9731L27.4252 15.4689L27.1331 15.3932L26.8462 15.5499L26.308 15.3699L26.15 15.4566L25.8063 14.7935L25.8414 14.7875L25.6757 14.6894L25.6563 13.599L25.6172 13.3703L25.2762 13.7866L25.0681 13.6902L24.945 13.3801L24.381 13.5426L24.329 13.9139L24.1481 14.0223L24.1588 14.174L24.1217 14.1968L24.1983 14.2706L24.3192 14.3713L24.294 14.7798L24.445 14.9339L24.4447 15.2876L24.1381 15.8264L24.107 16.1597L23.9342 16.2023L23.6821 16.7778L23.5471 16.8001L23.5942 16.8441L23.3276 17.1984L23.017 17.3503L23.1099 17.6505L23.041 17.9048L22.6155 18.0663L22.5489 18.2679L22.6345 18.449L22.6605 18.4268L22.7043 18.6297L22.4298 18.8557L22.6093 18.9648L22.6526 19.2868L22.9402 19.3521L23.1509 19.5931L22.9181 19.8426L22.7841 20.3426L22.5703 20.377L22.4406 20.1914L22.3352 20.2519L22.1662 20.1528L21.9144 20.2839L22.1434 19.9153L21.9069 19.4233L21.7612 18.9966L21.5881 18.9758L21.318 18.7135L20.9959 18.7054L21.4745 17.8269L21.1231 17.5833L20.9579 17.6543L20.7958 17.5803L20.6664 17.3763L20.468 17.6282L20.0026 17.3766L19.7493 17.3877L19.6222 17.1827L19.6708 17.0541L19.4788 16.9714L19.1772 16.4336L18.6998 16.1726L18.543 16.1096L18.6329 15.9844L18.4354 15.6334L18.6751 15.2829L18.6685 14.0903L18.6499 14.1001L18.521 13.9691L18.205 14.0676L17.91 14.1059L17.3949 14.5264L17.4832 14.5797L17.5854 14.6331L17.5594 14.8257L17.2187 14.9785L17.2092 15.1609L16.9682 15.2554L16.8461 15.6222L16.508 15.661L16.3639 15.5811L15.9823 15.9663L16.1359 16.1155L16.5439 16.8146L16.4515 17.1939L16.2402 17.2866L16.1272 17.5146L15.6231 17.6231L15.5472 17.9077L15.6283 18.1824L15.3158 18.6759L14.7398 18.6683L14.533 18.9179L14.4409 19.4735L14.1326 19.3806L13.9657 19.4661L13.6008 19.242L13.4014 19.4166L13.3035 19.1436L13.0265 18.9077L12.4682 18.9461L12.3726 18.7835L12.0268 18.8451L11.9666 19.0691L11.6534 19.0801L10.9554 19.6779L10.6335 19.498L10.424 19.5277L10.2468 19.4144L10.0004 19.7244L9.69609 19.7582L9.49908 20.0487L9.25967 19.8468L8.85444 20.0363L8.46829 19.4043L8.40832 19.0926L8.22008 18.9173L8.44819 18.7736L8.31825 18.8141L8.04816 18.5798L7.68251 17.9681L7.35811 18.2034L7.25948 18.0148L7.37962 17.8683L7.43721 17.3924L7.49836 17.3403L6.80204 17.2121L6.73273 16.9764L6.88162 16.748L6.82899 16.5318L6.95737 16.2465L7.19177 16.0097L7.21843 15.646L6.69996 15.2159L6.59945 14.9659L6.83125 14.7812L6.84718 14.6159L7.24452 14.644L7.68882 14.5705L7.69378 14.5703L7.67794 14.3716L7.05511 13.963L7.0373 13.8544L5.36774 13.3559L5.04094 13.4532L4.77645 13.3822L4.45069 13.742L3.9905 13.9295L4.1261 13.5032L4.01155 13.8452L3.64673 13.906L3.25272 14.2853L3.12656 14.5988L2.96754 14.6178L2.65158 15.0289L2.23795 16.0348L2.17457 16.4545L2.30829 16.4248L2.89188 15.482L2.84701 15.7577L3.00596 16.0043L3.23604 15.8822L3.34724 16.0801L3.24022 16.2623L2.72585 16.5041L2.17093 17.0469L1.49458 16.9814L1.38205 17.1435L1.08774 17.0476L0.824219 17.1883L1.10504 16.6598L0.891374 16.4998L0.959401 16.3413L1.39075 16.107L1.46824 16.1714L1.76606 16.0328L1.86937 16.1216L2.0323 15.983L1.89236 15.6571L2.3743 14.8309L2.3356 14.6701L2.29902 14.7082L1.64484 14.3252L1.79758 14.0502L1.72696 13.8162L2.30867 13.0377L1.99055 12.7186L3.20965 11.5928L4.26286 10.9415L4.58427 10.6017L4.30065 10.4943L4.52043 9.60719L4.30218 9.21913L4.75796 8.76435L4.81842 8.85036L5.6071 8.5979L5.95457 8.20433L6.26061 8.21675L6.05486 8.15574L6.32372 8.00252L6.1386 7.84291L6.29729 7.63671L6.49339 7.59846L6.47688 7.43866L7.18359 6.81297L7.98036 6.08959L7.92955 5.61707L8.26911 5.56416L8.36205 5.28052L8.68632 5.18295L8.72925 5.08867L8.41626 4.79955L7.45931 4.99655L7.70038 4.47506L7.87366 4.4553L7.89214 4.18174L8.31261 3.9722L8.2083 3.58986L8.3889 3.49181L8.81907 3.62994L9.20155 3.48659L9.42433 3.6195L9.69945 3.58881L9.49047 4.08266L9.90128 4.13097L10.0029 4.26933L10.2333 4.22109L10.5893 4.11665L10.9734 4.19603L11.2141 4.07164L11.4564 3.80724L11.2181 3.7198L11.288 3.57702L11.6013 3.72648L11.7732 3.62316L11.7929 3.38541L11.9749 3.24445L11.7769 3.23622L11.7594 3.12759L12.2003 2.76426L12.3504 2.76459L12.3804 2.62017L12.6049 2.74864L12.7761 2.55124L13.0805 2.53807L12.9589 2.6603L13.0496 2.86636L12.7056 2.92077L12.9676 3.18605L13.23 3.13367L13.806 2.94266L13.9791 2.64499L14.4621 2.63844L14.5939 2.98532L14.8211 3.06896L14.9354 2.93582L15.3718 3.00482L15.6986 2.87015L15.857 2.90924L15.9446 2.71022L16.3659 2.55392L16.5956 2.30506L16.7248 2.31386L16.7745 2.45286L16.8623 2.36998L17.2263 2.39991L17.2818 2.6043L17.4998 2.7816L17.8771 2.82585L17.9761 2.71629L18.2293 2.81639L18.6298 2.67108L18.4542 2.6402L18.3745 2.46986L18.7268 2.30191L18.8124 2.1231L18.9402 2.15822L19.1789 2.34742L19.135 2.4923L19.3338 2.40603L19.3304 2.03462L19.4022 1.94191L19.47 2.08343L19.5547 1.95636L19.3979 1.77181L19.4093 1.7434L19.2175 1.83911L19.0336 1.77621L18.8591 1.86328L18.8725 2.01307L18.4942 1.98317L18.4624 2.08539L18.4306 1.91414L18.0429 1.78801L18.1075 1.64576L18.0073 1.49382L18.3296 1.24706L18.3528 0.991243L18.5542 0.751826L19.1768 0.639379L19.1126 0.376953Z" fill="white"/>
</svg>
