<?xml version="1.0" encoding="UTF-8"?>
<svg id="Layer_1" xmlns="http://www.w3.org/2000/svg" viewBox="0 0 48 48">
  <g id="dew_point">
    <path id="drop" d="M17.69,26.64c0,8.38,12.53,8.6,12.53,0,0-3.44-4.59-9.63-5.49-11.02-.54-.81-1.02-.81-1.56,0-2.2,3.44-5.49,7.91-5.49,11.02h0ZM24.08,16.48c.11.22,5.11,6.99,5.11,10.16,0,7.25-10.43,7.1-10.43,0,0-2.84,3.53-7.97,5.06-10.16.11-.16.11-.22.27,0Z"/>
    <path id="form" d="M24.08,28.95c1.29-.27,2.26-1.77,1.83-3.01-.27-.65.75-1.02,1.02-.38.59,1.88-.75,3.87-2.64,4.3-.65.16-.86-.75-.22-.91h0Z"/>
  </g>
</svg>