<?xml version="1.0" encoding="UTF-8"?>
<svg id="Layer_1" xmlns="http://www.w3.org/2000/svg" viewBox="0 0 48 48">
  <path d="M26.95,30.29v-15.54c0-1.52-1.32-2.75-2.95-2.75s-2.95,1.23-2.95,2.75v15.54c-.93.84-1.47,2.03-1.47,3.28,0,2.44,1.99,4.43,4.43,4.43s4.43-1.98,4.43-4.43c0-1.25-.54-2.45-1.47-3.28ZM24,37.08c-1.94,0-3.51-1.57-3.51-3.51,0-1.17.58-2.21,1.47-2.84v-15.98c0-1.01.91-1.83,2.04-1.83s2.04.82,2.04,1.83v15.98c.89.64,1.47,1.67,1.47,2.84,0,1.94-1.58,3.51-3.51,3.51Z"/>
  <path d="M24.82,19.55h-1.63v1.6h1.63v-1.6Z"/>
  <path d="M24.64,32.27v-9.53h-1.28v9.54c-.52.22-.89.71-.89,1.27,0,.78.68,1.41,1.53,1.41s1.53-.63,1.53-1.41c0-.57-.36-1.05-.89-1.28Z"/>
</svg>