<?xml version="1.0" encoding="UTF-8"?>
<svg id="Layer_1" xmlns="http://www.w3.org/2000/svg" viewBox="0 0 48 48">
  <g id="camera">
    <path id="cam-body" d="M10.91,17.9c0-1.77.68-2.45,2.54-2.45h13.18c1.86,0,2.45.59,2.45,2.45v13.1c0,1.86-.68,2.45-2.45,2.45h-13.18c-1.86,0-2.45-.68-2.54-2.45v-13.1ZM13.7,16.38c-1.44,0-1.69.25-1.69,1.69v12.76c0,1.44.17,1.61,1.61,1.69h12.85c1.35,0,1.61-.17,1.61-1.52v-12.85c0-1.35-.17-1.69-1.69-1.77,0,0-12.68,0-12.68,0Z"/>
    <path id="cam-right" d="M37.11,15.7v17.41c-.34-.17-3.72-2.79-5.15-3.89-.59-.51-.85-1.01-.85-1.77v-5.75c0-.85.25-1.44.93-1.94,1.44-1.1,4.73-3.72,5.15-4.06h-.08ZM36.01,31.17v-13.44c-1.27,1.1-2.37,1.94-3.46,2.87-.25.25-.42.68-.42,1.01v5.58c0,.42.25.93.59,1.27.93.85,2.03,1.69,3.3,2.7h0Z"/>
  </g>
</svg>