<?xml version="1.0" encoding="UTF-8"?>
<svg id="Layer_1" xmlns="http://www.w3.org/2000/svg" viewBox="0 0 48 48">
  <path d="M30.97,22.15l-8.26-4.98c-.69-.38-1.5-.6-2.36-.6-2.66,0-4.82,2.09-4.82,4.68v12.18h2.25v-8.2c.54.33,1.15.56,1.8.66l10.16,1.29c1.51,0,2.73-1.19,2.73-2.65,0-1.04-.61-1.94-1.51-2.38ZM21.5,25.21l-1.44-.18-.41-.18c-1.19-.65-1.99-1.88-1.99-3.29,0-2.08,1.74-3.77,3.88-3.77h.26l2.03,1.05c-1.89.29-3.34,1.89-3.34,3.81,0,.98.39,1.88,1.01,2.56ZM27.69,21.06c-1.27.35-2.21,1.49-2.21,2.84,0,.73.28,1.39.72,1.9l-2.23-.28c-.63-.6-1.02-1.43-1.02-2.35,0-1.59,1.17-2.92,2.72-3.22l2.24,1.05c-.07.02-.15.03-.22.05ZM29.88,26.1c-.87,0-1.57-.71-1.57-1.57s.71-1.57,1.57-1.57,1.57.71,1.57,1.57-.7,1.57-1.57,1.57Z"/>
</svg>